<?xml version="1.0" encoding="UTF-8"?>
<svg width="20px" height="17px" viewBox="0 0 20 17" version="1.1" xmlns="http://www.w3.org/2000/svg" xmlns:xlink="http://www.w3.org/1999/xlink">
    <!-- Generator: Sketch 45.1 (43504) - http://www.bohemiancoding.com/sketch -->
    <title>icon-credit-card</title>
    <desc>Created with Sketch.</desc>
    <defs></defs>
    <g id="Page-1" stroke="none" stroke-width="1" fill="none" fill-rule="evenodd">
        <g id="1920x1080" transform="translate(-621.000000, -590.000000)" fill="#636363">
            <g id="Modal" transform="translate(510.000000, 299.000000)">
                <g id="Info" transform="translate(95.000000, 126.000000)">
                    <g id="Group-8" transform="translate(16.000000, 164.000000)">
                        <path d="M19.8921715,2.36596367 C19.8921715,1.61066944 19.3426145,1 18.662906,1 L1.22926549,1 C0.549556975,1 3.55271368e-15,1.61066944 3.55271368e-15,2.36596367 L3.55271368e-15,15.7542734 C3.55271368e-15,16.5095677 0.549556975,17.1202371 1.22926549,17.1202371 L18.7036611,17.1202371 C19.3833696,17.1202371 19.9329266,16.5095677 19.8921715,15.7043502 L19.8921715,2.36596367 Z M0.850665963,8.20878889 L19.0862292,8.20878889 L19.0862292,6.56451915 L0.850665963,6.56451915 L0.850665963,8.20878889 Z M0.805942273,2.7040923 C0.805942273,2.36115045 1.01760388,2.13785372 1.22926549,2.13785372 L1.22926549,2.08361187 L18.662906,2.08361187 C18.9192913,2.08361187 19.0862292,2.36645894 19.0862292,2.64957823 L19.0862292,5.48648799 L0.805942273,5.48648799 L0.805942273,2.7040923 Z M19.0862292,15.7846342 C19.0862292,16.0192346 18.8745676,16.1719879 18.662906,16.1719879 L1.22926549,16.1719879 C0.972880189,16.1719879 0.805942273,15.978311 0.805942273,15.7846342 L0.805942273,9.34106189 L19.0862292,9.34106189 L19.0862292,15.7846342 Z" id="icon-credit-card"></path>
                    </g>
                </g>
            </g>
        </g>
    </g>
</svg>