<?xml version="1.0" encoding="UTF-8"?>
<svg width="20px" height="14px" viewBox="0 0 20 14" version="1.1" xmlns="http://www.w3.org/2000/svg" xmlns:xlink="http://www.w3.org/1999/xlink">
    <!-- Generator: Sketch 45.1 (43504) - http://www.bohemiancoding.com/sketch -->
    <title>icon-boleto</title>
    <desc>Created with Sketch.</desc>
    <defs></defs>
    <g id="Page-1" stroke="none" stroke-width="1" fill="none" fill-rule="evenodd">
        <g id="1920x1080" transform="translate(-621.000000, -638.000000)" fill="#636363">
            <g id="Modal" transform="translate(510.000000, 299.000000)">
                <g id="Info" transform="translate(95.000000, 126.000000)">
                    <g id="Group-8" transform="translate(16.000000, 164.000000)">
                        <path d="M0.910767549,62.5859375 L0.910767549,49.3607113 L3.02733776,49.3607113 L3.02733776,62.5859375 L0.910767549,62.5859375 Z M6.24181146,62.5859375 L6.24181146,49.3607113 L8.36352483,49.3607113 L8.36352483,62.5859375 L6.24181146,62.5859375 Z M9.45628517,62.5859375 L9.45628517,49.3607113 L11.5779985,49.3607113 L11.5779985,62.5859375 L9.45628517,62.5859375 Z M16.8495747,62.5859375 L16.8495747,49.3607113 L20,49.3607113 L20,62.5859375 L16.8495747,62.5859375 Z M4.12041954,62.5859375 L4.12041954,49.3607113 L5.14913149,49.3607113 L5.14913149,62.5859375 L4.12041954,62.5859375 Z M12.6067908,62.5859375 L12.6067908,49.3607113 L13.6351813,49.3607113 L13.6351813,62.5859375 L12.6067908,62.5859375 Z M14.7281828,62.5859375 L14.7281828,49.3607113 L15.7568947,49.3607113 L15.7568947,62.5859375 L14.7281828,62.5859375 Z" id="icon-boleto"></path>
                    </g>
                </g>
            </g>
        </g>
    </g>
</svg>